{"asset":{"version":"2.0","generator":"THREE.GLTFExporter"},"scenes":[{"nodes":[0],"name":"AuxScene"}],"scene":0,"nodes":[{"mesh":0}],"bufferViews":[{"buffer":0,"byteOffset":0,"byteLength":9396,"target":34962,"byteStride":12},{"buffer":0,"byteOffset":9396,"byteLength":9396,"target":34962,"byteStride":12}],"buffers":[{"byteLength":18792,"uri":"data:application/octet-stream;base64,"}],"accessors":[{"bufferView":0,"componentType":5126,"count":783,"max":[98.01190185546875,1.7959749698638916,98.01190185546875],"min":[-97.98809814453125,0.5959699749946594,-97.98809814453125],"type":"VEC3"},{"bufferView":1,"componentType":5126,"count":783,"max":[0.34268489480018616,1,0.510295569896698],"min":[-0.22221016883850098,0.6753568649291992,-0.7091153264045715],"type":"VEC3"}],"materials":[{"pbrMetallicRoughness":{"baseColorFactor":[0.5019607843137255,0.5019607843137255,0.5019607843137255,1],"metallicFactor":0,"roughnessFactor":1}}],"meshes":[{"primitives":[{"mode":4,"attributes":{"POSITION":0,"NORMAL":1},"material":0}]}]}